G04 Layer: BoardOutlineLayer*
G04 Panelize: V-CUT, Column: 5, Row: 2, Board Size: 35mm x 25mm, Panelized Board Size: 175mm x 50mm*
G04 EasyEDA v6.5.51, 2026-03-07 20:30:28*
G04 10347500379c492e8404218041aaee3f,89ea65b299fd49ffb1d2759f1efd6196,10*
G04 Gerber Generator version 0.2*
G04 Scale: 100 percent, Rotated: No, Reflected: No *
G04 Dimensions in millimeters *
G04 leading zeros omitted , absolute positions ,4 integer and 5 decimal *
%FSLAX45Y45*%
%MOMM*%

%ADD10C,0.2540*%
%ADD11C,0.0106*%
D10*
X0Y2499995D02*
G01*
X3499993Y2499995D01*
X3499993Y0D01*
X0Y0D01*
X0Y2499995D01*
X3499991Y2499995D02*
G01*
X6999984Y2499995D01*
X6999984Y0D01*
X3499991Y0D01*
X3499991Y2499995D01*
X6999982Y2499995D02*
G01*
X10499975Y2499995D01*
X10499975Y0D01*
X6999982Y0D01*
X6999982Y2499995D01*
X10499973Y2499995D02*
G01*
X13999966Y2499995D01*
X13999966Y0D01*
X10499973Y0D01*
X10499973Y2499995D01*
X13999964Y2499995D02*
G01*
X17499957Y2499995D01*
X17499957Y0D01*
X13999964Y0D01*
X13999964Y2499995D01*
X0Y-1D02*
G01*
X3499993Y-1D01*
X3499993Y-2499996D01*
X0Y-2499996D01*
X0Y-1D01*
X3499991Y-1D02*
G01*
X6999984Y-1D01*
X6999984Y-2499996D01*
X3499991Y-2499996D01*
X3499991Y-1D01*
X6999982Y-1D02*
G01*
X10499975Y-1D01*
X10499975Y-2499996D01*
X6999982Y-2499996D01*
X6999982Y-1D01*
X10499973Y-1D02*
G01*
X13999966Y-1D01*
X13999966Y-2499996D01*
X10499973Y-2499996D01*
X10499973Y-1D01*
X13999964Y-1D02*
G01*
X17499957Y-1D01*
X17499957Y-2499996D01*
X13999964Y-2499996D01*
X13999964Y-1D01*
X0Y2499996D02*
G01*
X17499955Y2499996D01*
X17499955Y-2499996D01*
X0Y-2499996D01*
X0Y2499996D01*
X0Y0D02*
G01*
X17499955Y0D01*
X0Y0D02*
G01*
X17499955Y0D01*
X0Y0D02*
G01*
X17499955Y0D01*
X0Y0D02*
G01*
X17499955Y0D01*
X3499990Y2499996D02*
G01*
X3499990Y-2499996D01*
X3499990Y2499996D02*
G01*
X3499990Y-2499996D01*
X3499990Y2499996D02*
G01*
X3499990Y-2499996D01*
X3499990Y2499996D02*
G01*
X3499990Y-2499996D01*
X6999980Y2499996D02*
G01*
X6999980Y-2499996D01*
X6999980Y2499996D02*
G01*
X6999980Y-2499996D01*
X6999980Y2499996D02*
G01*
X6999980Y-2499996D01*
X6999980Y2499996D02*
G01*
X6999980Y-2499996D01*
X10499973Y2499996D02*
G01*
X10499973Y-2499996D01*
X10499973Y2499996D02*
G01*
X10499973Y-2499996D01*
X10499973Y2499996D02*
G01*
X10499973Y-2499996D01*
X10499973Y2499996D02*
G01*
X10499973Y-2499996D01*
X13999964Y2499996D02*
G01*
X13999964Y-2499996D01*
X13999964Y2499996D02*
G01*
X13999964Y-2499996D01*
X13999964Y2499996D02*
G01*
X13999964Y-2499996D01*
X13999964Y2499996D02*
G01*
X13999964Y-2499996D01*

%LPD*%
M02*
