G04 Layer: TopSilkscreenLayer*
G04 Panelize: V-CUT, Column: 5, Row: 2, Board Size: 35mm x 25mm, Panelized Board Size: 175mm x 50mm*
G04 EasyEDA v6.5.51, 2026-03-07 20:30:28*
G04 10347500379c492e8404218041aaee3f,89ea65b299fd49ffb1d2759f1efd6196,10*
G04 Gerber Generator version 0.2*
G04 Scale: 100 percent, Rotated: No, Reflected: No *
G04 Dimensions in millimeters *
G04 leading zeros omitted , absolute positions ,4 integer and 5 decimal *
%FSLAX45Y45*%
%MOMM*%

%ADD10C,0.2032*%
%ADD11C,0.2030*%
%ADD12C,0.1524*%
%ADD13C,0.2540*%
%ADD14C,0.0174*%

%LPD*%
G36*
X115062Y1709623D02*
G01*
X114604Y1709267D01*
X114350Y1706930D01*
X114452Y1653286D01*
X115112Y1590141D01*
X115519Y1570024D01*
X115925Y1562354D01*
X156464Y1538884D01*
X182016Y1524406D01*
X186283Y1521612D01*
X198272Y1514754D01*
X198475Y1514398D01*
X202793Y1512265D01*
X212242Y1506474D01*
X212547Y1506016D01*
X213715Y1505762D01*
X214172Y1505204D01*
X215341Y1505000D01*
X216662Y1503934D01*
X223469Y1500479D01*
X230276Y1496314D01*
X243992Y1488592D01*
X249021Y1485290D01*
X250139Y1485087D01*
X250342Y1484680D01*
X254101Y1482496D01*
X255676Y1481328D01*
X256438Y1481124D01*
X256997Y1480464D01*
X258165Y1480210D01*
X258775Y1479550D01*
X260096Y1479092D01*
X262178Y1477772D01*
X265684Y1476044D01*
X287680Y1463040D01*
X288340Y1462938D01*
X290322Y1461414D01*
X291134Y1461262D01*
X291896Y1460550D01*
X292963Y1460296D01*
X293217Y1459839D01*
X294386Y1459484D01*
X295960Y1458315D01*
X296976Y1457960D01*
X297383Y1457350D01*
X298551Y1457096D01*
X298958Y1456537D01*
X300126Y1456182D01*
X301752Y1455013D01*
X302768Y1454658D01*
X302971Y1454200D01*
X304292Y1453845D01*
X305054Y1453134D01*
X306120Y1452930D01*
X307390Y1451864D01*
X311099Y1449628D01*
X317550Y1446276D01*
X325882Y1441450D01*
X326186Y1440891D01*
X327406Y1440484D01*
X328676Y1439316D01*
X329895Y1438960D01*
X330454Y1438300D01*
X331419Y1438148D01*
X333095Y1437182D01*
X334162Y1436217D01*
X335432Y1435760D01*
X335940Y1435201D01*
X337464Y1434744D01*
X337566Y1434388D01*
X338582Y1434084D01*
X340563Y1432560D01*
X341426Y1432356D01*
X342138Y1431696D01*
X343204Y1431442D01*
X343357Y1431086D01*
X344881Y1430629D01*
X345084Y1430274D01*
X349097Y1427734D01*
X350469Y1427429D01*
X351891Y1426260D01*
X355041Y1424330D01*
X355904Y1424178D01*
X357886Y1422654D01*
X358698Y1422501D01*
X359156Y1421892D01*
X360324Y1421638D01*
X360781Y1421079D01*
X362000Y1420723D01*
X363270Y1419555D01*
X364642Y1419047D01*
X364947Y1418590D01*
X366115Y1418386D01*
X367182Y1417472D01*
X371246Y1415237D01*
X373329Y1413865D01*
X376123Y1412392D01*
X376478Y1411986D01*
X377647Y1411782D01*
X378714Y1410919D01*
X386486Y1406448D01*
X387654Y1405991D01*
X388010Y1405382D01*
X389178Y1405178D01*
X389991Y1404416D01*
X393750Y1402080D01*
X394614Y1401927D01*
X396595Y1400403D01*
X397611Y1400098D01*
X397713Y1399743D01*
X398780Y1399489D01*
X399491Y1398828D01*
X400354Y1398625D01*
X402336Y1397101D01*
X403352Y1396796D01*
X403504Y1396441D01*
X404977Y1395984D01*
X405485Y1395425D01*
X406146Y1395323D01*
X407771Y1394002D01*
X408736Y1393698D01*
X409397Y1393037D01*
X410565Y1392783D01*
X411022Y1392224D01*
X411886Y1392021D01*
X413867Y1390497D01*
X414883Y1390192D01*
X415137Y1389735D01*
X416356Y1389380D01*
X417626Y1388211D01*
X418998Y1387703D01*
X419557Y1387144D01*
X420624Y1386890D01*
X421182Y1386332D01*
X422503Y1385824D01*
X423773Y1384706D01*
X424789Y1384401D01*
X425094Y1383944D01*
X426262Y1383741D01*
X426923Y1383030D01*
X428243Y1382522D01*
X429514Y1381455D01*
X430530Y1381099D01*
X431088Y1380591D01*
X432155Y1380286D01*
X432714Y1379728D01*
X434035Y1379220D01*
X434593Y1378559D01*
X435914Y1378051D01*
X436626Y1377340D01*
X437794Y1377137D01*
X438454Y1376426D01*
X439064Y1376375D01*
X441045Y1374851D01*
X442061Y1374495D01*
X442620Y1373987D01*
X443738Y1373682D01*
X443992Y1373225D01*
X444855Y1373073D01*
X446125Y1371955D01*
X447446Y1371447D01*
X448157Y1370787D01*
X449326Y1370533D01*
X449580Y1370076D01*
X450951Y1369568D01*
X452221Y1368399D01*
X453440Y1368044D01*
X453898Y1367485D01*
X455066Y1367231D01*
X455371Y1366774D01*
X456742Y1366266D01*
X458012Y1365097D01*
X459232Y1364742D01*
X459689Y1364183D01*
X460857Y1363929D01*
X461111Y1363472D01*
X462483Y1362964D01*
X463753Y1361795D01*
X464972Y1361440D01*
X465429Y1360881D01*
X466598Y1360627D01*
X466902Y1360170D01*
X468274Y1359662D01*
X469544Y1358493D01*
X470763Y1358138D01*
X471170Y1357579D01*
X472389Y1357223D01*
X473659Y1356055D01*
X475030Y1355547D01*
X475335Y1355090D01*
X476504Y1354836D01*
X476961Y1354277D01*
X478485Y1353667D01*
X479806Y1352550D01*
X480618Y1352397D01*
X481076Y1351788D01*
X482244Y1351534D01*
X482701Y1350975D01*
X483920Y1350619D01*
X485190Y1349451D01*
X486562Y1348943D01*
X486867Y1348486D01*
X488035Y1348232D01*
X488492Y1347673D01*
X489712Y1347317D01*
X490982Y1346149D01*
X492150Y1345793D01*
X492607Y1345184D01*
X493776Y1344930D01*
X494487Y1344269D01*
X495808Y1343761D01*
X497078Y1342644D01*
X498093Y1342339D01*
X498398Y1341882D01*
X499567Y1341678D01*
X500024Y1341069D01*
X501243Y1340713D01*
X502513Y1339545D01*
X503682Y1339189D01*
X504139Y1338580D01*
X505307Y1338376D01*
X506018Y1337665D01*
X506628Y1337614D01*
X507898Y1336497D01*
X509219Y1335989D01*
X509930Y1335278D01*
X511098Y1335074D01*
X511556Y1334465D01*
X512775Y1334109D01*
X514045Y1332941D01*
X515213Y1332585D01*
X515518Y1332128D01*
X517042Y1331620D01*
X517296Y1331163D01*
X518515Y1330807D01*
X519785Y1329639D01*
X521004Y1329283D01*
X521258Y1328826D01*
X522376Y1328572D01*
X522935Y1328013D01*
X523951Y1327708D01*
X525221Y1326591D01*
X526542Y1326083D01*
X527202Y1325422D01*
X528421Y1325016D01*
X529691Y1323898D01*
X531063Y1323390D01*
X531164Y1323035D01*
X532688Y1322578D01*
X532790Y1322222D01*
X534162Y1321765D01*
X535432Y1320596D01*
X536651Y1320190D01*
X537108Y1319631D01*
X538276Y1319377D01*
X538734Y1318818D01*
X539953Y1318463D01*
X541223Y1317294D01*
X542594Y1316786D01*
X542899Y1316329D01*
X544068Y1316075D01*
X544474Y1315516D01*
X545338Y1315313D01*
X547319Y1313789D01*
X548335Y1313484D01*
X548894Y1312926D01*
X550011Y1312672D01*
X550113Y1312316D01*
X551840Y1311605D01*
X553110Y1310487D01*
X553974Y1310335D01*
X554634Y1309624D01*
X555853Y1309370D01*
X556564Y1308912D01*
X558342Y1308912D01*
X559054Y1309370D01*
X560171Y1309674D01*
X561441Y1310741D01*
X563372Y1311757D01*
X563930Y1312418D01*
X565251Y1312926D01*
X565912Y1313637D01*
X566775Y1313789D01*
X568756Y1315313D01*
X569772Y1315618D01*
X569874Y1315974D01*
X570890Y1316278D01*
X572160Y1317345D01*
X573735Y1318107D01*
X575005Y1319276D01*
X576173Y1319631D01*
X576478Y1320088D01*
X577494Y1320393D01*
X579069Y1321765D01*
X580339Y1322222D01*
X581558Y1323390D01*
X582777Y1323746D01*
X583234Y1324356D01*
X584047Y1324508D01*
X585368Y1325626D01*
X587248Y1326591D01*
X588518Y1327708D01*
X589381Y1327861D01*
X590042Y1328572D01*
X590651Y1328623D01*
X591921Y1329740D01*
X593191Y1330299D01*
X595122Y1331823D01*
X595985Y1331976D01*
X596646Y1332687D01*
X597966Y1333195D01*
X599236Y1334312D01*
X600252Y1334617D01*
X600506Y1335074D01*
X601370Y1335227D01*
X602640Y1336344D01*
X604570Y1337310D01*
X605840Y1338427D01*
X606653Y1338580D01*
X607364Y1339291D01*
X608685Y1339799D01*
X609244Y1340459D01*
X610463Y1341018D01*
X612394Y1342542D01*
X613410Y1342847D01*
X613918Y1343406D01*
X615238Y1343914D01*
X616458Y1345031D01*
X617423Y1345336D01*
X618642Y1346504D01*
X619861Y1346860D01*
X620268Y1347419D01*
X621131Y1347622D01*
X622401Y1348689D01*
X623976Y1349451D01*
X625246Y1350619D01*
X626465Y1350975D01*
X626872Y1351534D01*
X628091Y1351940D01*
X629361Y1353058D01*
X630580Y1353464D01*
X631240Y1354124D01*
X632561Y1354632D01*
X633780Y1355750D01*
X634695Y1356055D01*
X635965Y1357223D01*
X637336Y1357680D01*
X637438Y1358036D01*
X638454Y1358341D01*
X640384Y1359865D01*
X640943Y1359966D01*
X642213Y1361084D01*
X643534Y1361592D01*
X644042Y1362151D01*
X645414Y1362659D01*
X646633Y1363827D01*
X647903Y1364284D01*
X649122Y1365453D01*
X650341Y1365808D01*
X650595Y1366266D01*
X651967Y1366774D01*
X653237Y1367942D01*
X654456Y1368399D01*
X655726Y1369568D01*
X657098Y1370076D01*
X657352Y1370533D01*
X658571Y1370888D01*
X659841Y1372057D01*
X661060Y1372412D01*
X661314Y1372870D01*
X662330Y1373174D01*
X663600Y1374241D01*
X665530Y1375257D01*
X666800Y1376375D01*
X667816Y1376680D01*
X668070Y1377137D01*
X668934Y1377289D01*
X670204Y1378407D01*
X671423Y1378966D01*
X673404Y1380490D01*
X674217Y1380642D01*
X674674Y1381252D01*
X675894Y1381607D01*
X677113Y1382776D01*
X678789Y1383588D01*
X679399Y1384604D01*
X678992Y1385112D01*
X676757Y1386382D01*
X675030Y1387703D01*
X673862Y1388211D01*
X672236Y1389380D01*
X669086Y1390802D01*
X666750Y1392834D01*
X665632Y1393037D01*
X665124Y1393596D01*
X663956Y1393850D01*
X663702Y1394307D01*
X662330Y1394815D01*
X661060Y1395984D01*
X659841Y1396339D01*
X659384Y1396898D01*
X658571Y1397101D01*
X656945Y1398422D01*
X655574Y1398930D01*
X655015Y1399489D01*
X653897Y1399743D01*
X653796Y1400098D01*
X652780Y1400403D01*
X650798Y1401927D01*
X649782Y1402232D01*
X649478Y1402689D01*
X648309Y1402943D01*
X647852Y1403502D01*
X647039Y1403705D01*
X645414Y1405026D01*
X644042Y1405534D01*
X643483Y1406093D01*
X642366Y1406347D01*
X642264Y1406702D01*
X640740Y1407160D01*
X640537Y1407515D01*
X636066Y1410208D01*
X635101Y1410462D01*
X633831Y1411630D01*
X632510Y1412138D01*
X632002Y1412697D01*
X631342Y1412748D01*
X630072Y1413865D01*
X628751Y1414373D01*
X628091Y1415034D01*
X626922Y1415288D01*
X626618Y1415745D01*
X625246Y1416253D01*
X623976Y1417421D01*
X622757Y1417777D01*
X622503Y1418234D01*
X621385Y1418488D01*
X620826Y1419047D01*
X619810Y1419352D01*
X618540Y1420469D01*
X617220Y1420977D01*
X616559Y1421638D01*
X615391Y1421892D01*
X615086Y1422349D01*
X613714Y1422857D01*
X612444Y1424025D01*
X611225Y1424381D01*
X610768Y1424940D01*
X609600Y1425194D01*
X609142Y1425803D01*
X607923Y1426159D01*
X606298Y1427480D01*
X605282Y1427784D01*
X605180Y1428140D01*
X604113Y1428394D01*
X603402Y1429054D01*
X602538Y1429258D01*
X600557Y1430782D01*
X599541Y1431086D01*
X599440Y1431442D01*
X598322Y1431696D01*
X597763Y1432255D01*
X596747Y1432560D01*
X594766Y1434084D01*
X593750Y1434388D01*
X593648Y1434744D01*
X592124Y1435201D01*
X592023Y1435557D01*
X590651Y1436065D01*
X589381Y1437182D01*
X588162Y1437589D01*
X587756Y1438148D01*
X586181Y1438757D01*
X584911Y1439875D01*
X583895Y1440180D01*
X583336Y1440738D01*
X582269Y1440992D01*
X581710Y1441551D01*
X580390Y1442059D01*
X579120Y1443177D01*
X578104Y1443482D01*
X577799Y1443939D01*
X576478Y1444294D01*
X576173Y1444752D01*
X575005Y1445107D01*
X573735Y1446276D01*
X572516Y1446631D01*
X572058Y1447241D01*
X570890Y1447444D01*
X570179Y1448155D01*
X568858Y1448663D01*
X567588Y1449781D01*
X566572Y1450086D01*
X566267Y1450543D01*
X565099Y1450746D01*
X564438Y1451457D01*
X563118Y1451965D01*
X561848Y1453032D01*
X560832Y1453388D01*
X560273Y1453896D01*
X559155Y1454200D01*
X558901Y1454658D01*
X557682Y1455013D01*
X556412Y1456182D01*
X555193Y1456537D01*
X554939Y1456994D01*
X553415Y1457502D01*
X553110Y1457960D01*
X551942Y1458315D01*
X550672Y1459484D01*
X549452Y1459839D01*
X548995Y1460398D01*
X547827Y1460652D01*
X547522Y1461109D01*
X546150Y1461617D01*
X544880Y1462786D01*
X543661Y1463141D01*
X543204Y1463700D01*
X542036Y1463954D01*
X541578Y1464564D01*
X540766Y1464716D01*
X539445Y1465834D01*
X537921Y1466443D01*
X537464Y1467002D01*
X536244Y1467358D01*
X534974Y1468526D01*
X533654Y1469034D01*
X533095Y1469593D01*
X531977Y1469847D01*
X531876Y1470202D01*
X530860Y1470507D01*
X528878Y1472031D01*
X527862Y1472336D01*
X527558Y1472793D01*
X526389Y1473047D01*
X525932Y1473606D01*
X524713Y1473962D01*
X523443Y1475130D01*
X522122Y1475638D01*
X521512Y1476197D01*
X520446Y1476451D01*
X520344Y1476806D01*
X518617Y1477518D01*
X517347Y1478635D01*
X516483Y1478788D01*
X516229Y1479245D01*
X514705Y1479753D01*
X514197Y1480312D01*
X512876Y1480820D01*
X511556Y1481937D01*
X510743Y1482090D01*
X510285Y1482699D01*
X509117Y1482953D01*
X508406Y1483614D01*
X507085Y1484122D01*
X505815Y1485239D01*
X504951Y1485392D01*
X504698Y1485849D01*
X503580Y1486154D01*
X503021Y1486662D01*
X502005Y1487017D01*
X500024Y1488541D01*
X499008Y1488846D01*
X498754Y1489303D01*
X497535Y1489659D01*
X496265Y1490827D01*
X494893Y1491284D01*
X494792Y1491640D01*
X493268Y1492148D01*
X493014Y1492605D01*
X492150Y1492758D01*
X490880Y1493875D01*
X489153Y1494586D01*
X489000Y1494942D01*
X487934Y1495196D01*
X487375Y1495755D01*
X486003Y1496263D01*
X484733Y1497431D01*
X483362Y1497888D01*
X483260Y1498244D01*
X482193Y1498498D01*
X481482Y1499158D01*
X480618Y1499362D01*
X478637Y1500886D01*
X477621Y1501190D01*
X477469Y1501546D01*
X476402Y1501800D01*
X475843Y1502359D01*
X474827Y1502664D01*
X472846Y1504188D01*
X471982Y1504391D01*
X471525Y1504950D01*
X470408Y1505204D01*
X469798Y1505864D01*
X467868Y1506677D01*
X464413Y1508607D01*
X464312Y1508963D01*
X463296Y1509268D01*
X461314Y1510792D01*
X460451Y1510995D01*
X459790Y1511655D01*
X458470Y1512163D01*
X457200Y1513281D01*
X456336Y1513433D01*
X456082Y1513890D01*
X454558Y1514398D01*
X454253Y1514856D01*
X453085Y1515211D01*
X451815Y1516380D01*
X450596Y1516735D01*
X450138Y1517345D01*
X448970Y1517548D01*
X448259Y1518259D01*
X446938Y1518767D01*
X446379Y1519428D01*
X445058Y1519936D01*
X444347Y1520647D01*
X443179Y1520850D01*
X442569Y1521561D01*
X441198Y1522069D01*
X438861Y1523492D01*
X438759Y1523796D01*
X437235Y1524304D01*
X436930Y1524762D01*
X435762Y1525016D01*
X435101Y1525676D01*
X433781Y1526184D01*
X432511Y1527302D01*
X431850Y1527352D01*
X431342Y1527911D01*
X430022Y1528419D01*
X428751Y1529588D01*
X427532Y1529943D01*
X427075Y1530502D01*
X425907Y1530756D01*
X425602Y1531213D01*
X424230Y1531721D01*
X422960Y1532890D01*
X421741Y1533245D01*
X421335Y1533804D01*
X420116Y1534210D01*
X418846Y1535328D01*
X417626Y1535734D01*
X417169Y1536293D01*
X416001Y1536547D01*
X415543Y1537106D01*
X414324Y1537462D01*
X413054Y1538630D01*
X411683Y1539138D01*
X411429Y1539595D01*
X410260Y1539849D01*
X409803Y1540408D01*
X408940Y1540611D01*
X406958Y1542135D01*
X405942Y1542440D01*
X405638Y1542897D01*
X404469Y1543151D01*
X404012Y1543710D01*
X402793Y1544066D01*
X401523Y1545234D01*
X400151Y1545742D01*
X399897Y1546199D01*
X398729Y1546453D01*
X398272Y1547012D01*
X396697Y1547622D01*
X395427Y1548739D01*
X394563Y1548892D01*
X394309Y1549349D01*
X392785Y1549857D01*
X392277Y1550416D01*
X391617Y1550517D01*
X389636Y1552041D01*
X388823Y1552194D01*
X388061Y1552905D01*
X386994Y1553159D01*
X386740Y1553616D01*
X385521Y1553972D01*
X384251Y1555140D01*
X383032Y1555496D01*
X382778Y1555953D01*
X381406Y1556461D01*
X380136Y1557629D01*
X378917Y1557985D01*
X378460Y1558544D01*
X377291Y1558798D01*
X376834Y1559407D01*
X375970Y1559560D01*
X374700Y1560677D01*
X372973Y1561388D01*
X372872Y1561744D01*
X371348Y1562252D01*
X371094Y1562709D01*
X370230Y1562862D01*
X368249Y1564386D01*
X367233Y1564690D01*
X367080Y1565046D01*
X366014Y1565300D01*
X365455Y1565859D01*
X364134Y1566214D01*
X363423Y1566926D01*
X362813Y1566976D01*
X361543Y1568094D01*
X360222Y1568602D01*
X359511Y1569313D01*
X358698Y1569466D01*
X356717Y1570990D01*
X355701Y1571294D01*
X355549Y1571650D01*
X354482Y1571904D01*
X353771Y1572564D01*
X352552Y1572971D01*
X351282Y1574139D01*
X349910Y1574596D01*
X349808Y1574952D01*
X348081Y1575663D01*
X346811Y1576781D01*
X345948Y1576933D01*
X345694Y1577390D01*
X344170Y1577898D01*
X344017Y1578254D01*
X342493Y1578711D01*
X342392Y1579067D01*
X341376Y1579372D01*
X339394Y1580896D01*
X338531Y1581099D01*
X337820Y1581759D01*
X336753Y1582013D01*
X336651Y1582369D01*
X335635Y1582674D01*
X334010Y1583994D01*
X332790Y1584401D01*
X332333Y1584960D01*
X331165Y1585315D01*
X329895Y1586484D01*
X328676Y1586839D01*
X328218Y1587449D01*
X327050Y1587652D01*
X326339Y1588363D01*
X325018Y1588871D01*
X323748Y1589989D01*
X322732Y1590294D01*
X322427Y1590751D01*
X321259Y1590954D01*
X320802Y1591564D01*
X319582Y1591919D01*
X318363Y1593088D01*
X317144Y1593443D01*
X316687Y1594053D01*
X315518Y1594256D01*
X314807Y1594967D01*
X314198Y1595018D01*
X312928Y1596136D01*
X311607Y1596644D01*
X310896Y1597355D01*
X309727Y1597558D01*
X309270Y1598168D01*
X308051Y1598523D01*
X306781Y1599692D01*
X305612Y1600047D01*
X305155Y1600606D01*
X303936Y1601012D01*
X302310Y1602333D01*
X301294Y1602638D01*
X301193Y1602994D01*
X299669Y1603451D01*
X299567Y1603806D01*
X298196Y1604314D01*
X296926Y1605432D01*
X295706Y1605838D01*
X295249Y1606397D01*
X294081Y1606651D01*
X293624Y1607210D01*
X292455Y1607464D01*
X292150Y1607921D01*
X290779Y1608429D01*
X289509Y1609598D01*
X288290Y1609953D01*
X287883Y1610512D01*
X287020Y1610715D01*
X285038Y1612239D01*
X284022Y1612544D01*
X283464Y1613103D01*
X282397Y1613357D01*
X281889Y1613916D01*
X281228Y1614017D01*
X279247Y1615541D01*
X278434Y1615694D01*
X277672Y1616405D01*
X276606Y1616659D01*
X276504Y1617014D01*
X275132Y1617472D01*
X273862Y1618640D01*
X272491Y1619148D01*
X271932Y1619707D01*
X270865Y1619961D01*
X270713Y1620316D01*
X268986Y1621028D01*
X267716Y1622145D01*
X266852Y1622298D01*
X266192Y1623009D01*
X265582Y1623060D01*
X264312Y1624177D01*
X262991Y1624685D01*
X262280Y1625396D01*
X261112Y1625600D01*
X260451Y1626311D01*
X259842Y1626362D01*
X257860Y1627886D01*
X256844Y1628241D01*
X256286Y1628749D01*
X255168Y1629054D01*
X254914Y1629511D01*
X254050Y1629664D01*
X252780Y1630781D01*
X251460Y1631289D01*
X250748Y1631950D01*
X249580Y1632204D01*
X249326Y1632661D01*
X247954Y1633169D01*
X246684Y1634337D01*
X245465Y1634693D01*
X245008Y1635251D01*
X243840Y1635506D01*
X243535Y1635963D01*
X242163Y1636471D01*
X240893Y1637639D01*
X239674Y1637995D01*
X239217Y1638554D01*
X238048Y1638807D01*
X237794Y1639265D01*
X236778Y1639570D01*
X234797Y1641093D01*
X233781Y1641398D01*
X233629Y1641754D01*
X232562Y1642008D01*
X231851Y1642668D01*
X230632Y1643075D01*
X229362Y1644243D01*
X227990Y1644700D01*
X227888Y1645056D01*
X226161Y1645767D01*
X224891Y1646885D01*
X224028Y1647037D01*
X223774Y1647494D01*
X222250Y1648002D01*
X221742Y1648561D01*
X220725Y1648815D01*
X219506Y1649984D01*
X218135Y1650492D01*
X217576Y1651050D01*
X216458Y1651304D01*
X216204Y1651762D01*
X214985Y1652117D01*
X213715Y1653286D01*
X212344Y1653793D01*
X212039Y1654251D01*
X210870Y1654505D01*
X210413Y1655064D01*
X209194Y1655419D01*
X207924Y1656588D01*
X206756Y1656943D01*
X206298Y1657553D01*
X205130Y1657756D01*
X204419Y1658467D01*
X203098Y1658975D01*
X202539Y1659636D01*
X201218Y1660143D01*
X200507Y1660855D01*
X199339Y1661058D01*
X198882Y1661668D01*
X197662Y1662023D01*
X196392Y1663192D01*
X195224Y1663547D01*
X194919Y1664004D01*
X193395Y1664512D01*
X193141Y1664970D01*
X191922Y1665325D01*
X190652Y1666493D01*
X189433Y1666849D01*
X189179Y1667306D01*
X188061Y1667560D01*
X187502Y1668119D01*
X186486Y1668424D01*
X185216Y1669542D01*
X183896Y1670050D01*
X183235Y1670710D01*
X182067Y1670964D01*
X181762Y1671421D01*
X180390Y1671929D01*
X179120Y1673098D01*
X177901Y1673453D01*
X177495Y1674012D01*
X176631Y1674215D01*
X174650Y1675739D01*
X173634Y1676044D01*
X173482Y1676400D01*
X172008Y1676857D01*
X171500Y1677416D01*
X170840Y1677517D01*
X168859Y1679041D01*
X167995Y1679244D01*
X167284Y1679905D01*
X166217Y1680159D01*
X166116Y1680514D01*
X164744Y1680972D01*
X163474Y1682140D01*
X162255Y1682546D01*
X161798Y1683105D01*
X160629Y1683359D01*
X160172Y1683918D01*
X158953Y1684274D01*
X157683Y1685442D01*
X156311Y1685950D01*
X156006Y1686407D01*
X154889Y1686661D01*
X154432Y1687220D01*
X152857Y1687830D01*
X151587Y1688947D01*
X150571Y1689252D01*
X150012Y1689811D01*
X148945Y1690065D01*
X148793Y1690420D01*
X147066Y1691132D01*
X145796Y1692249D01*
X144932Y1692402D01*
X144272Y1693113D01*
X143662Y1693164D01*
X142392Y1694281D01*
X141071Y1694789D01*
X140360Y1695450D01*
X139192Y1695704D01*
X138734Y1696313D01*
X137922Y1696466D01*
X135940Y1697989D01*
X134924Y1698345D01*
X134366Y1698853D01*
X133248Y1699158D01*
X132994Y1699615D01*
X132130Y1699768D01*
X130860Y1700885D01*
X129133Y1701596D01*
X129032Y1701952D01*
X127965Y1702206D01*
X127355Y1702765D01*
X126034Y1703273D01*
X124764Y1704441D01*
X123393Y1704898D01*
X123240Y1705254D01*
X121716Y1705762D01*
X121462Y1706219D01*
X120599Y1706372D01*
X119329Y1707489D01*
X117602Y1708200D01*
X117500Y1708556D01*
X116382Y1708810D01*
X115824Y1709369D01*
G37*
G36*
X112522Y1451965D02*
G01*
X112574Y1445666D01*
X115976Y1445666D01*
X116839Y1446784D01*
X117856Y1446784D01*
X118364Y1446326D01*
X118618Y1445615D01*
X118414Y1444853D01*
X117805Y1444294D01*
X116992Y1444142D01*
X116382Y1444396D01*
X116027Y1444955D01*
X115976Y1445666D01*
X112574Y1445666D01*
X116687Y930757D01*
X116992Y855929D01*
X117703Y815492D01*
X117906Y813206D01*
X118313Y812698D01*
X118516Y813714D01*
X118770Y813917D01*
X119075Y813460D01*
X119329Y811022D01*
X119837Y810615D01*
X122377Y809701D01*
X123545Y809650D01*
X124561Y809853D01*
X125425Y810615D01*
X126746Y811123D01*
X128016Y812241D01*
X129032Y812546D01*
X129336Y813003D01*
X130505Y813206D01*
X131165Y813917D01*
X131724Y813968D01*
X133553Y815390D01*
X149352Y825042D01*
X162458Y831951D01*
X163169Y832103D01*
X165100Y833678D01*
X165963Y833831D01*
X166624Y834542D01*
X167233Y834593D01*
X168503Y835710D01*
X169824Y836218D01*
X170535Y836930D01*
X171704Y837133D01*
X172364Y837844D01*
X172974Y837895D01*
X174955Y839419D01*
X175971Y839774D01*
X176479Y840282D01*
X177444Y840587D01*
X178714Y841756D01*
X180086Y842213D01*
X180441Y842771D01*
X182676Y843889D01*
X193497Y850392D01*
X198628Y852779D01*
X200507Y854303D01*
X201523Y854608D01*
X201777Y855065D01*
X202641Y855218D01*
X203911Y856335D01*
X205232Y856843D01*
X205943Y857503D01*
X207111Y857758D01*
X207568Y858316D01*
X214426Y862736D01*
X229362Y871067D01*
X229666Y871474D01*
X230733Y871677D01*
X231495Y872388D01*
X232664Y872591D01*
X233324Y873302D01*
X234645Y873810D01*
X235915Y874877D01*
X236931Y875233D01*
X237439Y875741D01*
X238404Y876046D01*
X239674Y877214D01*
X241046Y877671D01*
X241198Y878027D01*
X242722Y878535D01*
X242976Y878992D01*
X243840Y879144D01*
X245110Y880211D01*
X246278Y880821D01*
X248462Y882497D01*
X254660Y886307D01*
X254863Y1072184D01*
X254457Y1310132D01*
X254101Y1372971D01*
X251967Y1374444D01*
X113995Y1451457D01*
G37*
G36*
X788009Y1319479D02*
G01*
X620979Y1222248D01*
X617118Y1220216D01*
X560527Y1187145D01*
X552551Y1182827D01*
X548690Y1180490D01*
X545744Y1178966D01*
X541578Y1176223D01*
X529132Y1168958D01*
X526542Y1167638D01*
X526034Y1167028D01*
X524560Y1166418D01*
X502259Y1153363D01*
X491235Y1147216D01*
X490626Y1146606D01*
X489051Y1146048D01*
X487426Y1145032D01*
X486359Y1144625D01*
X484479Y1143152D01*
X481584Y1141628D01*
X480364Y1141323D01*
X479806Y1140663D01*
X478586Y1140307D01*
X477316Y1139139D01*
X475945Y1138631D01*
X475691Y1138174D01*
X474522Y1137920D01*
X473913Y1137259D01*
X472744Y1136802D01*
X467207Y1133144D01*
X466090Y1132941D01*
X465277Y1132281D01*
X463092Y1131112D01*
X461670Y1129893D01*
X460501Y1129690D01*
X460197Y1129233D01*
X459130Y1128979D01*
X458368Y1128268D01*
X457555Y1128115D01*
X455574Y1126591D01*
X454558Y1126286D01*
X453542Y1125321D01*
X450850Y1123746D01*
X448767Y1122984D01*
X448665Y1122629D01*
X447751Y1122324D01*
X443331Y1119479D01*
X442061Y1118463D01*
X440537Y1118057D01*
X438607Y1116533D01*
X431647Y1112824D01*
X430377Y1111758D01*
X429463Y1111656D01*
X429006Y1111402D01*
X428751Y1110945D01*
X427583Y1110640D01*
X425551Y1109014D01*
X416102Y1103426D01*
X415035Y1103172D01*
X414426Y1102614D01*
X413359Y1102360D01*
X412953Y1101801D01*
X411734Y1101293D01*
X410108Y1100175D01*
X409244Y1099870D01*
X408686Y1099312D01*
X407619Y1099058D01*
X407466Y1098702D01*
X405739Y1097991D01*
X404469Y1096873D01*
X403606Y1096721D01*
X403098Y1096010D01*
X402590Y1095959D01*
X399745Y1094028D01*
X397814Y1093419D01*
X397611Y1092962D01*
X396290Y1092504D01*
X394614Y1091184D01*
X391617Y1089456D01*
X390804Y1088694D01*
X389636Y1088440D01*
X389178Y1087882D01*
X388010Y1087628D01*
X387705Y1087170D01*
X386689Y1086866D01*
X384708Y1085342D01*
X383692Y1085037D01*
X383590Y1084681D01*
X382066Y1084224D01*
X381965Y1083868D01*
X380796Y1083411D01*
X379222Y1082243D01*
X378053Y1081836D01*
X377444Y1081176D01*
X376123Y1080668D01*
X374802Y1079550D01*
X373989Y1079398D01*
X373532Y1078788D01*
X372364Y1078534D01*
X371652Y1077874D01*
X370332Y1077366D01*
X369062Y1076248D01*
X368046Y1075944D01*
X367792Y1075486D01*
X366928Y1075334D01*
X365658Y1074216D01*
X364337Y1073708D01*
X359257Y1070457D01*
X358190Y1070203D01*
X358038Y1069848D01*
X356514Y1069340D01*
X356311Y1068882D01*
X355244Y1068425D01*
X352907Y1066495D01*
X350062Y1064768D01*
X349859Y917397D01*
X351332Y917905D01*
X565404Y1043838D01*
X591159Y1058722D01*
X605739Y1067511D01*
X624484Y1078230D01*
X629056Y1081278D01*
X632561Y1083157D01*
X635254Y1084935D01*
X636422Y1085392D01*
X637743Y1086358D01*
X643229Y1089304D01*
X652780Y1094943D01*
X654202Y1095400D01*
X655980Y1096772D01*
X664565Y1101598D01*
X665632Y1102512D01*
X666800Y1102715D01*
X667207Y1103325D01*
X668020Y1103477D01*
X672795Y1106830D01*
X678180Y1109878D01*
X680364Y1111351D01*
X683615Y1113028D01*
X684834Y1113332D01*
X685342Y1114044D01*
X686308Y1114348D01*
X688035Y1115720D01*
X703072Y1124254D01*
X703732Y1124864D01*
X711250Y1129334D01*
X714654Y1130757D01*
X714857Y1131214D01*
X715975Y1131671D01*
X721258Y1135024D01*
X721461Y1135380D01*
X722833Y1135684D01*
X723493Y1136396D01*
X724814Y1136904D01*
X726084Y1138021D01*
X727100Y1138275D01*
X728421Y1139291D01*
X730707Y1140510D01*
X731520Y1141272D01*
X732688Y1141476D01*
X732993Y1141933D01*
X734364Y1142441D01*
X735634Y1143609D01*
X736854Y1143965D01*
X737260Y1144524D01*
X738479Y1144879D01*
X739749Y1146048D01*
X741121Y1146505D01*
X745540Y1149502D01*
X746709Y1149705D01*
X747115Y1150315D01*
X748080Y1150670D01*
X752957Y1153668D01*
X754024Y1154531D01*
X755091Y1154785D01*
X755446Y1155344D01*
X757072Y1156055D01*
X773582Y1166012D01*
X774700Y1166215D01*
X775360Y1166876D01*
X775919Y1166977D01*
X778510Y1168857D01*
X780542Y1169670D01*
X781761Y1170787D01*
X782980Y1171194D01*
X783691Y1171854D01*
X784758Y1172108D01*
X785266Y1172667D01*
X786282Y1172921D01*
X787552Y1174089D01*
X788873Y1174597D01*
X789279Y1175156D01*
X790549Y1175664D01*
X792124Y1176782D01*
X793038Y1177086D01*
X793292Y1177544D01*
X794461Y1177747D01*
X795172Y1178458D01*
X796493Y1178966D01*
X797763Y1180084D01*
X798779Y1180388D01*
X799033Y1180846D01*
X799896Y1180998D01*
X801166Y1182116D01*
X802894Y1182827D01*
X802995Y1183182D01*
X804011Y1183487D01*
X805637Y1184808D01*
X806856Y1185214D01*
X807313Y1185773D01*
X808482Y1186027D01*
X808888Y1186586D01*
X809904Y1186942D01*
X811479Y1188110D01*
X812647Y1188516D01*
X813308Y1189177D01*
X814628Y1189685D01*
X815898Y1190802D01*
X816914Y1191107D01*
X817168Y1191564D01*
X818032Y1191717D01*
X819302Y1192834D01*
X825042Y1196035D01*
X825246Y1196390D01*
X826769Y1196848D01*
X827278Y1197406D01*
X827938Y1197508D01*
X829564Y1198829D01*
X830935Y1199337D01*
X831189Y1199794D01*
X832408Y1200150D01*
X833678Y1201318D01*
X835050Y1201826D01*
X835355Y1202283D01*
X836472Y1202537D01*
X837184Y1203198D01*
X838504Y1203706D01*
X839774Y1204823D01*
X840638Y1204976D01*
X840892Y1205433D01*
X842010Y1205890D01*
X844499Y1207668D01*
X846480Y1208430D01*
X848004Y1209751D01*
X849020Y1210056D01*
X849172Y1210411D01*
X850696Y1210868D01*
X850798Y1211224D01*
X851814Y1211529D01*
X853795Y1213053D01*
X854659Y1213256D01*
X855319Y1213916D01*
X856640Y1214424D01*
X857910Y1215542D01*
X858774Y1215694D01*
X859434Y1216406D01*
X860044Y1216456D01*
X861314Y1217574D01*
X862634Y1218082D01*
X863346Y1218742D01*
X864514Y1218996D01*
X864971Y1219606D01*
X866190Y1219962D01*
X867460Y1221130D01*
X868629Y1221486D01*
X869289Y1222146D01*
X869950Y1222248D01*
X871931Y1223772D01*
X872947Y1224076D01*
X873048Y1224432D01*
X874776Y1225143D01*
X876046Y1226261D01*
X876909Y1226413D01*
X877163Y1226870D01*
X878687Y1227378D01*
X878789Y1227734D01*
X880516Y1228445D01*
X881786Y1229563D01*
X882802Y1229868D01*
X883107Y1230325D01*
X884275Y1230680D01*
X885545Y1231849D01*
X886764Y1232204D01*
X887221Y1232763D01*
X888390Y1233017D01*
X889050Y1233678D01*
X890320Y1234186D01*
X896315Y1238250D01*
X898906Y1239520D01*
X899515Y1240231D01*
X900785Y1240688D01*
X903579Y1242720D01*
X912418Y1248003D01*
X912520Y1248918D01*
X912317Y1249324D01*
X901547Y1255166D01*
X884529Y1264920D01*
X869035Y1273251D01*
X865022Y1276045D01*
G37*
G36*
X1293368Y256286D02*
G01*
X1293368Y114300D01*
X1331722Y114300D01*
X1331722Y169164D01*
X1416304Y169164D01*
X1416304Y114300D01*
X1454404Y114300D01*
X1454404Y256286D01*
X1416304Y256286D01*
X1416304Y204724D01*
X1331722Y204724D01*
X1331722Y256286D01*
G37*
G36*
X1559814Y256286D02*
G01*
X1559814Y160528D01*
X1560068Y153111D01*
X1560779Y146354D01*
X1562100Y140208D01*
X1563979Y134772D01*
X1566519Y129946D01*
X1569770Y125780D01*
X1573682Y122275D01*
X1578406Y119380D01*
X1583944Y117144D01*
X1590294Y115570D01*
X1597558Y114604D01*
X1605788Y114300D01*
X1708912Y114300D01*
X1708912Y150622D01*
X1610614Y150622D01*
X1604467Y151282D01*
X1600555Y153466D01*
X1598523Y157581D01*
X1597914Y164084D01*
X1597914Y256286D01*
G37*
G36*
X1808480Y256286D02*
G01*
X1808480Y114300D01*
X1846834Y114300D01*
X1846834Y169164D01*
X1931416Y169164D01*
X1931416Y114300D01*
X1969516Y114300D01*
X1969516Y256286D01*
X1931416Y256286D01*
X1931416Y204724D01*
X1846834Y204724D01*
X1846834Y256286D01*
G37*
G36*
X2074925Y256286D02*
G01*
X2074925Y160528D01*
X2075180Y153111D01*
X2075891Y146354D01*
X2077212Y140208D01*
X2079091Y134772D01*
X2081631Y129946D01*
X2084882Y125780D01*
X2088794Y122275D01*
X2093518Y119380D01*
X2099056Y117144D01*
X2105406Y115570D01*
X2112670Y114604D01*
X2120900Y114300D01*
X2224024Y114300D01*
X2224024Y150622D01*
X2125726Y150622D01*
X2119579Y151282D01*
X2115667Y153466D01*
X2113635Y157581D01*
X2113026Y164084D01*
X2113026Y256286D01*
G37*
G36*
X2063496Y2387600D02*
G01*
X2063496Y2245614D01*
X2101596Y2245614D01*
X2101596Y2297176D01*
X2186178Y2297176D01*
X2186178Y2245614D01*
X2224532Y2245614D01*
X2224532Y2387600D01*
X2186178Y2387600D01*
X2186178Y2332736D01*
X2101596Y2332736D01*
X2101596Y2387600D01*
G37*
G36*
X1808988Y2387600D02*
G01*
X1808988Y2351278D01*
X1907286Y2351278D01*
X1913432Y2350617D01*
X1917344Y2348433D01*
X1919376Y2344318D01*
X1919986Y2337816D01*
X1919986Y2245614D01*
X1958086Y2245614D01*
X1958086Y2341372D01*
X1957832Y2348788D01*
X1957120Y2355545D01*
X1955800Y2361692D01*
X1953920Y2367127D01*
X1951380Y2371953D01*
X1948129Y2376119D01*
X1944217Y2379624D01*
X1939493Y2382520D01*
X1933956Y2384755D01*
X1927606Y2386330D01*
X1920341Y2387295D01*
X1912112Y2387600D01*
G37*
G36*
X1548384Y2387600D02*
G01*
X1548384Y2245614D01*
X1586484Y2245614D01*
X1586484Y2297176D01*
X1671066Y2297176D01*
X1671066Y2245614D01*
X1709420Y2245614D01*
X1709420Y2387600D01*
X1671066Y2387600D01*
X1671066Y2332736D01*
X1586484Y2332736D01*
X1586484Y2387600D01*
G37*
G36*
X1293876Y2387600D02*
G01*
X1293876Y2351278D01*
X1392174Y2351278D01*
X1398320Y2350617D01*
X1402232Y2348433D01*
X1404264Y2344318D01*
X1404874Y2337816D01*
X1404874Y2245614D01*
X1442974Y2245614D01*
X1442974Y2341372D01*
X1442720Y2348788D01*
X1442008Y2355545D01*
X1440688Y2361692D01*
X1438808Y2367127D01*
X1436268Y2371953D01*
X1433017Y2376119D01*
X1429105Y2379624D01*
X1424381Y2382520D01*
X1418844Y2384755D01*
X1412494Y2386330D01*
X1405229Y2387295D01*
X1397000Y2387600D01*
G37*
G36*
X3023616Y1655572D02*
G01*
X3023616Y1617472D01*
X3060700Y1617472D01*
X3060700Y1655572D01*
G37*
G36*
X2956814Y1594866D02*
G01*
X2945892Y1594002D01*
X2937052Y1591411D01*
X2929940Y1587246D01*
X2924302Y1581658D01*
X2920796Y1576527D01*
X2918104Y1570685D01*
X2916326Y1564132D01*
X2915666Y1557020D01*
X2916174Y1550517D01*
X2917596Y1544726D01*
X2919882Y1539494D01*
X2922981Y1534871D01*
X2926791Y1530756D01*
X2931312Y1527098D01*
X2936443Y1523847D01*
X2942082Y1520952D01*
X3013100Y1488186D01*
X3013913Y1487373D01*
X3014370Y1486458D01*
X3014370Y1484172D01*
X3013913Y1483207D01*
X3013100Y1482445D01*
X2942082Y1449578D01*
X2936443Y1446682D01*
X2931312Y1443431D01*
X2926791Y1439773D01*
X2922981Y1435658D01*
X2919882Y1431086D01*
X2917596Y1425956D01*
X2916174Y1420164D01*
X2915666Y1413764D01*
X2916275Y1406499D01*
X2918104Y1399895D01*
X2920796Y1394002D01*
X2924302Y1388872D01*
X2929940Y1383284D01*
X2937052Y1379118D01*
X2945892Y1376527D01*
X2956814Y1375664D01*
X3060700Y1375664D01*
X3060700Y1412240D01*
X2963418Y1412240D01*
X2961741Y1412544D01*
X2960573Y1413306D01*
X2959862Y1414373D01*
X2959608Y1415542D01*
X2960116Y1417116D01*
X2961386Y1418336D01*
X3050540Y1461262D01*
X3056483Y1465529D01*
X3060598Y1471218D01*
X3062986Y1477975D01*
X3063748Y1485392D01*
X3062986Y1492707D01*
X3060547Y1499412D01*
X3056483Y1505102D01*
X3050540Y1509268D01*
X2961386Y1552194D01*
X2960116Y1553413D01*
X2959608Y1554988D01*
X2959862Y1556258D01*
X2960573Y1557324D01*
X2961741Y1558036D01*
X2963418Y1558290D01*
X3060700Y1558290D01*
X3060700Y1594866D01*
G37*
G36*
X3060700Y1358392D02*
G01*
X3054756Y1358036D01*
X3018790Y1357884D01*
X3008274Y1357071D01*
X3000298Y1354531D01*
X2994253Y1350264D01*
X2989580Y1344168D01*
X2983484Y1350568D01*
X2976372Y1354734D01*
X2968498Y1356969D01*
X2960116Y1357630D01*
X2952292Y1356868D01*
X2944926Y1354582D01*
X2938170Y1350975D01*
X2932176Y1346200D01*
X2929280Y1343152D01*
X2926638Y1339799D01*
X2924352Y1335989D01*
X2922422Y1331772D01*
X2920847Y1327048D01*
X2919679Y1321866D01*
X2918968Y1316177D01*
X2918714Y1309878D01*
X2918714Y1240790D01*
X2954274Y1240790D01*
X2954274Y1304798D01*
X2954528Y1308150D01*
X2955340Y1311046D01*
X2956509Y1313383D01*
X2958084Y1315212D01*
X2959760Y1316532D01*
X2961741Y1317498D01*
X2963824Y1318056D01*
X2965958Y1318260D01*
X2967990Y1318056D01*
X2969920Y1317548D01*
X2973324Y1315720D01*
X2975203Y1313789D01*
X2976676Y1311402D01*
X2977591Y1308455D01*
X2977896Y1304798D01*
X2977896Y1237742D01*
X2957322Y1237742D01*
X2956102Y1237945D01*
X2955137Y1238504D01*
X2954477Y1239469D01*
X2954274Y1240790D01*
X2918714Y1240790D01*
X2918714Y1209040D01*
X2919272Y1204976D01*
X2920949Y1202080D01*
X2923743Y1200251D01*
X2927604Y1199642D01*
X3060700Y1199642D01*
X3060700Y1237742D01*
X3010408Y1237742D01*
X3010408Y1303782D01*
X3011119Y1310944D01*
X3013303Y1315821D01*
X3017164Y1318615D01*
X3022854Y1319530D01*
X3056026Y1319580D01*
X3060700Y1320038D01*
G37*
G36*
X2918714Y1181862D02*
G01*
X2918714Y1052830D01*
X2919882Y1043990D01*
X2923489Y1037640D01*
X2929432Y1033780D01*
X2937764Y1032510D01*
X3040888Y1032510D01*
X3049574Y1033780D01*
X3055772Y1037590D01*
X3059480Y1043889D01*
X3060700Y1052576D01*
X3060700Y1181862D01*
X3024378Y1181862D01*
X3024378Y1073912D01*
X3024124Y1072438D01*
X3023412Y1071422D01*
X3022244Y1070813D01*
X3020568Y1070610D01*
X3003296Y1070610D01*
X3003296Y1181354D01*
X2976118Y1181354D01*
X2976118Y1070610D01*
X2959862Y1070610D01*
X2958338Y1070813D01*
X2957220Y1071422D01*
X2956560Y1072438D01*
X2956306Y1073912D01*
X2956306Y1181862D01*
G37*
G36*
X2918714Y1017778D02*
G01*
X2918714Y855218D01*
X2956306Y855218D01*
X2956306Y917448D01*
X3060700Y917448D01*
X3060700Y955802D01*
X2956306Y955802D01*
X2956306Y1017778D01*
G37*
G36*
X532892Y1688592D02*
G01*
X532892Y1634998D01*
X653288Y1634998D01*
X654659Y1634794D01*
X655675Y1634185D01*
X656336Y1633270D01*
X656590Y1632204D01*
X656386Y1631035D01*
X655828Y1630121D01*
X653542Y1628394D01*
X618490Y1606296D01*
X613156Y1602536D01*
X609346Y1598523D01*
X607060Y1593900D01*
X606298Y1588262D01*
X607161Y1581505D01*
X610209Y1575866D01*
X616254Y1571955D01*
X626110Y1570482D01*
X666750Y1570482D01*
X675284Y1569262D01*
X680923Y1565859D01*
X684072Y1560728D01*
X685038Y1554226D01*
X684072Y1547774D01*
X680923Y1542542D01*
X675284Y1538986D01*
X666750Y1537716D01*
X532384Y1537716D01*
X532384Y1485900D01*
X683006Y1485900D01*
X690575Y1486204D01*
X697687Y1487170D01*
X704342Y1488744D01*
X710590Y1490827D01*
X716381Y1493469D01*
X721715Y1496568D01*
X726541Y1500124D01*
X730910Y1504086D01*
X734822Y1508404D01*
X738174Y1513027D01*
X741070Y1518005D01*
X743458Y1523187D01*
X745337Y1528622D01*
X746709Y1534210D01*
X747522Y1540002D01*
X747776Y1545844D01*
X747522Y1552549D01*
X746810Y1558798D01*
X745591Y1564589D01*
X743915Y1570024D01*
X741832Y1575003D01*
X739292Y1579575D01*
X736396Y1583740D01*
X733094Y1587500D01*
X729386Y1590852D01*
X725373Y1593850D01*
X721055Y1596491D01*
X716381Y1598726D01*
X711403Y1600555D01*
X706170Y1602079D01*
X700684Y1603197D01*
X694944Y1604010D01*
X693369Y1604975D01*
X693013Y1605686D01*
X692962Y1607058D01*
X693572Y1608328D01*
X727202Y1632966D01*
X733755Y1638604D01*
X738530Y1644599D01*
X741476Y1651254D01*
X742442Y1658874D01*
X741883Y1665020D01*
X740308Y1670710D01*
X737616Y1675739D01*
X733907Y1680108D01*
X729132Y1683664D01*
X723239Y1686356D01*
X716381Y1688033D01*
X708406Y1688592D01*
G37*
G36*
X760222Y1688592D02*
G01*
X760222Y1634998D01*
X793496Y1634998D01*
X796950Y1634489D01*
X799287Y1632915D01*
X800658Y1630273D01*
X801116Y1626616D01*
X801116Y1485900D01*
X855218Y1485900D01*
X855218Y1634744D01*
X855065Y1641602D01*
X854608Y1647901D01*
X853846Y1653743D01*
X852728Y1659128D01*
X851255Y1664004D01*
X849376Y1668424D01*
X847090Y1672386D01*
X844397Y1675841D01*
X841248Y1678889D01*
X837641Y1681530D01*
X833577Y1683715D01*
X828954Y1685493D01*
X823874Y1686864D01*
X818184Y1687830D01*
X811987Y1688388D01*
X805180Y1688592D01*
G37*
G36*
X3266694Y139446D02*
G01*
X3268472Y134874D01*
X3305048Y54610D01*
X3307334Y50190D01*
X3309975Y46380D01*
X3313023Y43180D01*
X3316427Y40589D01*
X3320287Y38608D01*
X3324606Y37185D01*
X3329330Y36322D01*
X3334512Y36068D01*
X3339592Y36322D01*
X3344265Y37185D01*
X3348482Y38608D01*
X3352241Y40589D01*
X3355644Y43180D01*
X3358692Y46329D01*
X3361385Y50190D01*
X3363722Y54610D01*
X3400551Y136144D01*
X3401568Y139446D01*
X3370072Y139446D01*
X3368801Y135890D01*
X3338829Y65786D01*
X3337966Y64363D01*
X3336950Y63398D01*
X3335782Y62890D01*
X3334512Y62738D01*
X3333242Y62890D01*
X3332073Y63398D01*
X3331057Y64363D01*
X3330194Y65786D01*
X3299612Y136804D01*
X3298951Y139446D01*
G37*
G36*
X3408934Y139446D02*
G01*
X3408934Y112776D01*
X3425698Y112776D01*
X3427374Y112471D01*
X3428542Y111658D01*
X3429254Y110286D01*
X3429508Y108458D01*
X3429508Y38100D01*
X3456432Y38100D01*
X3456432Y112522D01*
X3456127Y119075D01*
X3455162Y124663D01*
X3453536Y129285D01*
X3451047Y133045D01*
X3447694Y135890D01*
X3443376Y137871D01*
X3437991Y139039D01*
X3431540Y139446D01*
G37*
D10*
X2881122Y762762D02*
G01*
X2627122Y762762D01*
X2627122Y1270762D01*
X2881122Y1270762D01*
X2881122Y1080262D01*
D11*
X2881122Y762762D02*
G01*
X2881122Y1080262D01*
D12*
X2845704Y1572463D02*
G01*
X2845704Y1700956D01*
X2662285Y1700956D01*
X2662285Y1572463D01*
X2845704Y1477223D02*
G01*
X2845704Y1348729D01*
X2662285Y1348729D01*
X2662285Y1477223D01*
D13*
X1248112Y330004D02*
G01*
X2251882Y330004D01*
X1281882Y835002D02*
G01*
X1248112Y835002D01*
X1531881Y835002D02*
G01*
X1468109Y835002D01*
X1781881Y835002D02*
G01*
X1718109Y835002D01*
X2031880Y835002D02*
G01*
X1968108Y835002D01*
X2251882Y835002D02*
G01*
X2218108Y835002D01*
X1325008Y507504D02*
G01*
X1425008Y507504D01*
X1425008Y427494D01*
X1325008Y427494D01*
X1325008Y507504D01*
X1574995Y507504D02*
G01*
X1674995Y507504D01*
X1674995Y427494D01*
X1574995Y427494D01*
X1574995Y507504D01*
X1825007Y507504D02*
G01*
X1925007Y507504D01*
X1925007Y427494D01*
X1825007Y427494D01*
X1825007Y507504D01*
X2074994Y507504D02*
G01*
X2174994Y507504D01*
X2174994Y427494D01*
X2074994Y427494D01*
X2074994Y507504D01*
X2251880Y2169990D02*
G01*
X1248110Y2169990D01*
X2218110Y1664992D02*
G01*
X2251880Y1664992D01*
X1968111Y1664992D02*
G01*
X2031883Y1664992D01*
X1718111Y1664992D02*
G01*
X1781883Y1664992D01*
X1468112Y1664992D02*
G01*
X1531884Y1664992D01*
X1248110Y1664992D02*
G01*
X1281884Y1664992D01*
X2174984Y1992490D02*
G01*
X2074984Y1992490D01*
X2074984Y2072500D01*
X2174984Y2072500D01*
X2174984Y1992490D01*
X1924997Y1992490D02*
G01*
X1824997Y1992490D01*
X1824997Y2072500D01*
X1924997Y2072500D01*
X1924997Y1992490D01*
X1674985Y1992490D02*
G01*
X1574985Y1992490D01*
X1574985Y2072500D01*
X1674985Y2072500D01*
X1674985Y1992490D01*
X1424998Y1992490D02*
G01*
X1324998Y1992490D01*
X1324998Y2072500D01*
X1424998Y2072500D01*
X1424998Y1992490D01*
G75*
G01
X1436032Y652513D02*
G03X1436032Y652513I-61036J0D01*
G75*
G01
X1686044Y652513D02*
G03X1686044Y652513I-61036J0D01*
G75*
G01
X1936031Y652513D02*
G03X1936031Y652513I-61036J0D01*
G75*
G01
X2186043Y652513D02*
G03X2186043Y652513I-61036J0D01*
G75*
G01
X2186033Y1847482D02*
G03X2186033Y1847482I-61036J0D01*
G75*
G01
X1936021Y1847482D02*
G03X1936021Y1847482I-61036J0D01*
G75*
G01
X1686034Y1847482D02*
G03X1686034Y1847482I-61036J0D01*
G75*
G01
X1436022Y1847482D02*
G03X1436022Y1847482I-61036J0D01*
M02*
