G04 Layer: TopLayer*
G04 Panelize: V-CUT, Column: 5, Row: 2, Board Size: 35mm x 25mm, Panelized Board Size: 175mm x 50mm*
G04 EasyEDA v6.5.51, 2026-03-07 20:30:28*
G04 10347500379c492e8404218041aaee3f,89ea65b299fd49ffb1d2759f1efd6196,10*
G04 Gerber Generator version 0.2*
G04 Scale: 100 percent, Rotated: No, Reflected: No *
G04 Dimensions in millimeters *
G04 leading zeros omitted , absolute positions ,4 integer and 5 decimal *
%FSLAX45Y45*%
%MOMM*%

%AMMACRO1*21,1,$1,$2,0,0,$3*%
%ADD10C,0.2540*%
%ADD11MACRO1,1.377X1.1325X0.0000*%
%ADD12R,1.3770X1.1325*%
%ADD13R,1.4000X3.4000*%
%ADD14R,2.3000X5.6000*%
%ADD15R,2.0000X2.0000*%
%ADD16C,2.0000*%
%ADD17C,0.0159*%
%ADD18C,0.6200*%

%LPD*%
G36*
X113385Y50952D02*
G01*
X110642Y51308D01*
X108102Y52374D01*
X102870Y55575D01*
X89204Y65786D01*
X79552Y74523D01*
X77063Y77978D01*
X76200Y82092D01*
X76200Y2417927D01*
X77063Y2422042D01*
X79552Y2425446D01*
X89966Y2434844D01*
X92100Y2436418D01*
X94945Y2437892D01*
X98145Y2438400D01*
X3401872Y2438400D01*
X3405073Y2437892D01*
X3407918Y2436418D01*
X3410762Y2434234D01*
X3423412Y2422702D01*
X3426510Y2419299D01*
X3428441Y2416149D01*
X3429152Y2412542D01*
X3441496Y102362D01*
X3440988Y99161D01*
X3439515Y96266D01*
X3434232Y89204D01*
X3422700Y76606D01*
X3411016Y65989D01*
X3407867Y64058D01*
X3404209Y63347D01*
G37*

%LPC*%
G36*
X404520Y224180D02*
G01*
X422605Y225552D01*
X440385Y228803D01*
X457809Y233883D01*
X474573Y240690D01*
X490524Y249224D01*
X505561Y259334D01*
X519480Y270916D01*
X532130Y283870D01*
X543356Y298094D01*
X553059Y313385D01*
X561187Y329539D01*
X567537Y346506D01*
X572160Y364032D01*
X574954Y381914D01*
X575868Y399999D01*
X574954Y418084D01*
X572160Y435965D01*
X567537Y453491D01*
X561187Y470458D01*
X553059Y486613D01*
X543356Y501904D01*
X532130Y516128D01*
X519480Y529082D01*
X505561Y540664D01*
X490524Y550773D01*
X474573Y559308D01*
X457809Y566115D01*
X440385Y571195D01*
X422605Y574446D01*
X404520Y575818D01*
X386435Y575360D01*
X368452Y573024D01*
X350824Y568909D01*
X333756Y562914D01*
X317347Y555244D01*
X301802Y545947D01*
X287324Y535076D01*
X274015Y522782D01*
X262077Y509168D01*
X251561Y494385D01*
X242671Y478637D01*
X235407Y462026D01*
X229920Y444804D01*
X226212Y427075D01*
X224332Y409041D01*
X224332Y390956D01*
X226212Y372922D01*
X229920Y355193D01*
X235407Y337972D01*
X242671Y321360D01*
X251561Y305612D01*
X262077Y290830D01*
X274015Y277215D01*
X287324Y264922D01*
X301802Y254050D01*
X317347Y244754D01*
X333756Y237083D01*
X350824Y231089D01*
X368452Y226974D01*
X386435Y224637D01*
G37*
G36*
X3104540Y224180D02*
G01*
X3122574Y225552D01*
X3140405Y228803D01*
X3157778Y233883D01*
X3174542Y240690D01*
X3190544Y249224D01*
X3205581Y259334D01*
X3219450Y270916D01*
X3232099Y283870D01*
X3243376Y298094D01*
X3253079Y313385D01*
X3261156Y329539D01*
X3267557Y346506D01*
X3272180Y364032D01*
X3274974Y381914D01*
X3275888Y399999D01*
X3274974Y418084D01*
X3272180Y435965D01*
X3267557Y453491D01*
X3261156Y470458D01*
X3253079Y486613D01*
X3243376Y501904D01*
X3232099Y516128D01*
X3219450Y529082D01*
X3205581Y540664D01*
X3190544Y550773D01*
X3174542Y559308D01*
X3157778Y566115D01*
X3140405Y571195D01*
X3122574Y574446D01*
X3104540Y575818D01*
X3086404Y575360D01*
X3068472Y573024D01*
X3050844Y568909D01*
X3033725Y562914D01*
X3017316Y555244D01*
X3001822Y545947D01*
X2987294Y535076D01*
X2974035Y522782D01*
X2962046Y509168D01*
X2951581Y494385D01*
X2942640Y478637D01*
X2935427Y462026D01*
X2929890Y444804D01*
X2926181Y427075D01*
X2924352Y409041D01*
X2924352Y390956D01*
X2926181Y372922D01*
X2929890Y355193D01*
X2935427Y337972D01*
X2942640Y321360D01*
X2951581Y305612D01*
X2962046Y290830D01*
X2974035Y277215D01*
X2987294Y264922D01*
X3001822Y254050D01*
X3017316Y244754D01*
X3033725Y237083D01*
X3050844Y231089D01*
X3068472Y226974D01*
X3086404Y224637D01*
G37*
G36*
X1305560Y711606D02*
G01*
X1444447Y711606D01*
X1450746Y712317D01*
X1456232Y714197D01*
X1461109Y717296D01*
X1465224Y721410D01*
X1468272Y726287D01*
X1470202Y731774D01*
X1470914Y738073D01*
X1470914Y1076909D01*
X1470202Y1083259D01*
X1468272Y1088694D01*
X1465224Y1093622D01*
X1461109Y1097686D01*
X1456232Y1100785D01*
X1450746Y1102715D01*
X1444447Y1103426D01*
X1429054Y1103426D01*
X1425397Y1104087D01*
X1422196Y1106068D01*
X1419961Y1109014D01*
X1418234Y1112469D01*
X1417167Y1116533D01*
X1417828Y1120698D01*
X1420114Y1124204D01*
X1511604Y1215694D01*
X1514906Y1217930D01*
X1518818Y1218692D01*
X1612493Y1218692D01*
X1616608Y1217828D01*
X1620012Y1215339D01*
X1622145Y1211681D01*
X1622602Y1207465D01*
X1621282Y1203452D01*
X1618488Y1200302D01*
X1614627Y1198575D01*
X1608937Y1197356D01*
X1599996Y1193800D01*
X1591767Y1188720D01*
X1584553Y1182370D01*
X1578457Y1174851D01*
X1573784Y1166418D01*
X1570583Y1157325D01*
X1568958Y1147826D01*
X1568958Y1138174D01*
X1570583Y1128674D01*
X1575612Y1114501D01*
X1575104Y1110335D01*
X1573022Y1106728D01*
X1569618Y1104290D01*
X1565503Y1103426D01*
X1555546Y1103426D01*
X1549247Y1102715D01*
X1543761Y1100785D01*
X1538884Y1097686D01*
X1534769Y1093622D01*
X1531721Y1088694D01*
X1529791Y1083259D01*
X1529080Y1076909D01*
X1529080Y738073D01*
X1529791Y731774D01*
X1531721Y726287D01*
X1534769Y721410D01*
X1538884Y717296D01*
X1543761Y714197D01*
X1549247Y712317D01*
X1555546Y711606D01*
X1694434Y711606D01*
X1700733Y712317D01*
X1706219Y714197D01*
X1711096Y717296D01*
X1715211Y721410D01*
X1718259Y726287D01*
X1720189Y731774D01*
X1720900Y738073D01*
X1720900Y1076909D01*
X1720189Y1083259D01*
X1718259Y1088694D01*
X1715211Y1093622D01*
X1711096Y1097686D01*
X1706219Y1100785D01*
X1700733Y1102715D01*
X1694434Y1103426D01*
X1685645Y1103426D01*
X1681683Y1104188D01*
X1678381Y1106474D01*
X1676196Y1109878D01*
X1675485Y1113840D01*
X1676400Y1117752D01*
X1679244Y1124051D01*
X1681632Y1133398D01*
X1682496Y1143000D01*
X1681632Y1152601D01*
X1679244Y1161948D01*
X1675231Y1170736D01*
X1669846Y1178712D01*
X1663192Y1185672D01*
X1655419Y1191412D01*
X1646783Y1195781D01*
X1636877Y1198829D01*
X1633270Y1200759D01*
X1630730Y1204010D01*
X1629664Y1207973D01*
X1630273Y1212037D01*
X1632457Y1215542D01*
X1635810Y1217879D01*
X1639824Y1218692D01*
X1881733Y1218692D01*
X1885645Y1217930D01*
X1888947Y1215694D01*
X1891131Y1212443D01*
X1891893Y1208532D01*
X1891131Y1204620D01*
X1888947Y1201369D01*
X1848104Y1160475D01*
X1842973Y1154277D01*
X1839417Y1147572D01*
X1837232Y1140358D01*
X1836420Y1132332D01*
X1836420Y1124204D01*
X1835353Y1119632D01*
X1830019Y1109014D01*
X1827784Y1106068D01*
X1824634Y1104087D01*
X1820976Y1103426D01*
X1805584Y1103426D01*
X1799234Y1102715D01*
X1793798Y1100785D01*
X1788871Y1097686D01*
X1784807Y1093622D01*
X1781708Y1088694D01*
X1779778Y1083259D01*
X1779066Y1076909D01*
X1779066Y738073D01*
X1779778Y731774D01*
X1781708Y726287D01*
X1784807Y721410D01*
X1788871Y717296D01*
X1793798Y714197D01*
X1799234Y712317D01*
X1805584Y711606D01*
X1944420Y711606D01*
X1950770Y712317D01*
X1956206Y714197D01*
X1961083Y717296D01*
X1965198Y721410D01*
X1968296Y726287D01*
X1970176Y731774D01*
X1970887Y738073D01*
X1970887Y1076909D01*
X1970176Y1083259D01*
X1968296Y1088694D01*
X1965198Y1093622D01*
X1961083Y1097686D01*
X1956206Y1100785D01*
X1950770Y1102715D01*
X1944420Y1103426D01*
X1929028Y1103426D01*
X1925370Y1104087D01*
X1922170Y1106068D01*
X1919935Y1109014D01*
X1918512Y1111910D01*
X1917446Y1115974D01*
X1918106Y1120089D01*
X1920392Y1123645D01*
X2012492Y1215694D01*
X2015794Y1217930D01*
X2019706Y1218692D01*
X2107793Y1218692D01*
X2111908Y1217828D01*
X2115312Y1215339D01*
X2117445Y1211681D01*
X2117902Y1207465D01*
X2116582Y1203452D01*
X2113788Y1200302D01*
X2109927Y1198575D01*
X2104237Y1197356D01*
X2095296Y1193800D01*
X2087067Y1188720D01*
X2079853Y1182370D01*
X2073757Y1174851D01*
X2069084Y1166418D01*
X2065883Y1157325D01*
X2064257Y1147826D01*
X2064257Y1138174D01*
X2065883Y1128674D01*
X2070912Y1114501D01*
X2070404Y1110335D01*
X2068322Y1106728D01*
X2064918Y1104290D01*
X2060803Y1103426D01*
X2055571Y1103426D01*
X2049221Y1102715D01*
X2043785Y1100785D01*
X2038857Y1097686D01*
X2034793Y1093622D01*
X2031695Y1088694D01*
X2029815Y1083259D01*
X2029104Y1076909D01*
X2029104Y738073D01*
X2029815Y731774D01*
X2031695Y726287D01*
X2034793Y721410D01*
X2038857Y717296D01*
X2043785Y714197D01*
X2049221Y712317D01*
X2055571Y711606D01*
X2194407Y711606D01*
X2200757Y712317D01*
X2206193Y714197D01*
X2211120Y717296D01*
X2215184Y721410D01*
X2218283Y726287D01*
X2220214Y731774D01*
X2220925Y738073D01*
X2220925Y1076909D01*
X2220214Y1083259D01*
X2216759Y1092860D01*
X2217064Y1097178D01*
X2219147Y1100937D01*
X2222601Y1103477D01*
X2226818Y1104392D01*
X2480614Y1104392D01*
X2484526Y1103630D01*
X2487828Y1101394D01*
X2620721Y968502D01*
X2622804Y965504D01*
X2623667Y961948D01*
X2628290Y882243D01*
X2629001Y874826D01*
X2631744Y859739D01*
X2636266Y845210D01*
X2642514Y831342D01*
X2650388Y818337D01*
X2659786Y806348D01*
X2670505Y795629D01*
X2682494Y786231D01*
X2695498Y778357D01*
X2709367Y772160D01*
X2723845Y767588D01*
X2738831Y764895D01*
X2754020Y763930D01*
X2769158Y764895D01*
X2784144Y767588D01*
X2798622Y772160D01*
X2812491Y778357D01*
X2825496Y786231D01*
X2837484Y795629D01*
X2848203Y806348D01*
X2857601Y818337D01*
X2865475Y831342D01*
X2871724Y845210D01*
X2876245Y859739D01*
X2878988Y874674D01*
X2879902Y889863D01*
X2878988Y905002D01*
X2876245Y919987D01*
X2871724Y934466D01*
X2865475Y948334D01*
X2857601Y961339D01*
X2848203Y973328D01*
X2837484Y984097D01*
X2825496Y993444D01*
X2816199Y999083D01*
X2813050Y1002080D01*
X2811424Y1006144D01*
X2811678Y1010513D01*
X2813710Y1014374D01*
X2817164Y1017016D01*
X2821432Y1017930D01*
X2853436Y1017930D01*
X2859735Y1018641D01*
X2865221Y1020571D01*
X2870098Y1023619D01*
X2874213Y1027734D01*
X2877261Y1032611D01*
X2879191Y1038098D01*
X2879902Y1044397D01*
X2879902Y1243279D01*
X2879191Y1249578D01*
X2877261Y1255064D01*
X2874213Y1259941D01*
X2870098Y1264056D01*
X2865221Y1267104D01*
X2859735Y1269034D01*
X2853436Y1269746D01*
X2808020Y1269746D01*
X2804363Y1270457D01*
X2801213Y1272387D01*
X2798927Y1275384D01*
X2793542Y1286154D01*
X2792476Y1290675D01*
X2792476Y1321358D01*
X2793542Y1325880D01*
X2798927Y1336700D01*
X2801213Y1339646D01*
X2804363Y1341628D01*
X2808020Y1342288D01*
X2822295Y1342288D01*
X2828594Y1342999D01*
X2834081Y1344930D01*
X2838958Y1348028D01*
X2843072Y1352092D01*
X2846120Y1357020D01*
X2848051Y1362456D01*
X2848762Y1368806D01*
X2848762Y1480870D01*
X2848051Y1487220D01*
X2846120Y1492656D01*
X2843072Y1497584D01*
X2838958Y1501648D01*
X2834081Y1504746D01*
X2828594Y1506677D01*
X2822295Y1507388D01*
X2747568Y1507388D01*
X2743454Y1508252D01*
X2740050Y1510741D01*
X2737916Y1514348D01*
X2737459Y1518564D01*
X2738729Y1522577D01*
X2741574Y1525727D01*
X2761488Y1540357D01*
X2764332Y1541830D01*
X2767482Y1542288D01*
X2822295Y1542288D01*
X2828594Y1543050D01*
X2834081Y1544929D01*
X2838958Y1548028D01*
X2843072Y1552092D01*
X2846120Y1557020D01*
X2848051Y1562455D01*
X2848762Y1568805D01*
X2848762Y1680921D01*
X2848051Y1687220D01*
X2846120Y1692706D01*
X2843072Y1697583D01*
X2838958Y1701698D01*
X2834081Y1704746D01*
X2828594Y1706676D01*
X2822295Y1707388D01*
X2685694Y1707388D01*
X2679395Y1706676D01*
X2673908Y1704746D01*
X2669032Y1701698D01*
X2664917Y1697583D01*
X2661869Y1692706D01*
X2659938Y1687220D01*
X2659227Y1680921D01*
X2659227Y1568754D01*
X2659024Y1565452D01*
X2657703Y1562354D01*
X2648458Y1547876D01*
X2647086Y1546199D01*
X2399995Y1298905D01*
X2396693Y1296670D01*
X2392781Y1295908D01*
X2269896Y1295908D01*
X2265984Y1296670D01*
X2262682Y1298905D01*
X2182317Y1379220D01*
X2180132Y1382522D01*
X2179370Y1386433D01*
X2180132Y1390294D01*
X2182317Y1393596D01*
X2185619Y1395831D01*
X2189530Y1396593D01*
X2194407Y1396593D01*
X2200757Y1397304D01*
X2206193Y1399184D01*
X2211120Y1402283D01*
X2215184Y1406398D01*
X2218283Y1411274D01*
X2220214Y1416761D01*
X2220925Y1423060D01*
X2220925Y1761896D01*
X2220214Y1768246D01*
X2218283Y1773682D01*
X2215184Y1778609D01*
X2211120Y1782673D01*
X2206193Y1785772D01*
X2200757Y1787702D01*
X2194407Y1788414D01*
X2055571Y1788414D01*
X2049221Y1787702D01*
X2043785Y1785772D01*
X2038908Y1782673D01*
X2034793Y1778609D01*
X2031695Y1773682D01*
X2029815Y1768246D01*
X2029104Y1761896D01*
X2029104Y1423060D01*
X2029815Y1416761D01*
X2031695Y1411274D01*
X2034793Y1406398D01*
X2038908Y1402283D01*
X2043785Y1399184D01*
X2049221Y1397304D01*
X2055571Y1396593D01*
X2070963Y1396593D01*
X2074621Y1395882D01*
X2077770Y1393952D01*
X2080056Y1390954D01*
X2086051Y1378966D01*
X2087168Y1374495D01*
X2089353Y1367282D01*
X2092909Y1360576D01*
X2098040Y1354378D01*
X2139137Y1313230D01*
X2141321Y1309979D01*
X2142083Y1306068D01*
X2141321Y1302156D01*
X2139137Y1298905D01*
X2135835Y1296670D01*
X2131923Y1295908D01*
X1920544Y1295908D01*
X1916430Y1296771D01*
X1913026Y1299260D01*
X1910892Y1302867D01*
X1910435Y1307084D01*
X1911705Y1311097D01*
X1914499Y1314246D01*
X1917192Y1316228D01*
X1923846Y1323187D01*
X1929231Y1331163D01*
X1933244Y1339951D01*
X1935632Y1349298D01*
X1936496Y1358900D01*
X1935632Y1368501D01*
X1933244Y1377848D01*
X1931212Y1382217D01*
X1930349Y1386179D01*
X1931060Y1390142D01*
X1933244Y1393494D01*
X1936546Y1395780D01*
X1940509Y1396593D01*
X1944420Y1396593D01*
X1950770Y1397304D01*
X1956206Y1399184D01*
X1961134Y1402283D01*
X1965198Y1406398D01*
X1968296Y1411274D01*
X1970176Y1416761D01*
X1970887Y1423060D01*
X1970887Y1761896D01*
X1970176Y1768246D01*
X1968296Y1773682D01*
X1965198Y1778609D01*
X1961134Y1782673D01*
X1956206Y1785772D01*
X1950770Y1787702D01*
X1944420Y1788414D01*
X1805584Y1788414D01*
X1799234Y1787702D01*
X1793798Y1785772D01*
X1788871Y1782673D01*
X1784807Y1778609D01*
X1781708Y1773682D01*
X1779778Y1768246D01*
X1779066Y1761896D01*
X1779066Y1423060D01*
X1779778Y1416761D01*
X1781708Y1411274D01*
X1784807Y1406398D01*
X1788871Y1402283D01*
X1793798Y1399184D01*
X1799234Y1397304D01*
X1805584Y1396593D01*
X1818436Y1396593D01*
X1822246Y1395831D01*
X1825498Y1393748D01*
X1827682Y1390599D01*
X1828596Y1386840D01*
X1828038Y1383030D01*
X1824583Y1373225D01*
X1822957Y1363726D01*
X1822957Y1354074D01*
X1824583Y1344574D01*
X1827784Y1335481D01*
X1832457Y1327048D01*
X1838553Y1319530D01*
X1845208Y1313688D01*
X1847646Y1310436D01*
X1848612Y1306474D01*
X1848002Y1302461D01*
X1845818Y1299057D01*
X1842465Y1296720D01*
X1838502Y1295908D01*
X1770786Y1295908D01*
X1766874Y1296670D01*
X1763572Y1298905D01*
X1683207Y1379220D01*
X1681022Y1382522D01*
X1680260Y1386433D01*
X1681022Y1390294D01*
X1683207Y1393596D01*
X1686509Y1395831D01*
X1690420Y1396593D01*
X1694434Y1396593D01*
X1700733Y1397304D01*
X1706219Y1399184D01*
X1711096Y1402283D01*
X1715211Y1406398D01*
X1718259Y1411274D01*
X1720189Y1416761D01*
X1720900Y1423060D01*
X1720900Y1761896D01*
X1720189Y1768246D01*
X1718259Y1773682D01*
X1715211Y1778609D01*
X1711096Y1782673D01*
X1706219Y1785772D01*
X1700733Y1787702D01*
X1694434Y1788414D01*
X1555546Y1788414D01*
X1549247Y1787702D01*
X1543761Y1785772D01*
X1538884Y1782673D01*
X1534769Y1778609D01*
X1531721Y1773682D01*
X1529791Y1768246D01*
X1529080Y1761896D01*
X1529080Y1423060D01*
X1529791Y1416761D01*
X1531721Y1411274D01*
X1534769Y1406398D01*
X1538884Y1402283D01*
X1543761Y1399184D01*
X1549247Y1397304D01*
X1555546Y1396593D01*
X1570939Y1396593D01*
X1574647Y1395882D01*
X1577797Y1393952D01*
X1580032Y1390954D01*
X1586280Y1378508D01*
X1589481Y1368044D01*
X1593037Y1361338D01*
X1598168Y1355140D01*
X1640027Y1313230D01*
X1642211Y1309979D01*
X1642973Y1306068D01*
X1642211Y1302156D01*
X1640027Y1298905D01*
X1636725Y1296670D01*
X1632813Y1295908D01*
X1499108Y1295908D01*
X1491081Y1295095D01*
X1483868Y1292910D01*
X1477162Y1289354D01*
X1470964Y1284224D01*
X1347978Y1161237D01*
X1342847Y1155039D01*
X1339291Y1148334D01*
X1337106Y1141120D01*
X1336294Y1133094D01*
X1336294Y1123950D01*
X1335227Y1119378D01*
X1330045Y1109014D01*
X1327810Y1106068D01*
X1324610Y1104087D01*
X1320952Y1103426D01*
X1305560Y1103426D01*
X1299260Y1102715D01*
X1293774Y1100785D01*
X1288897Y1097686D01*
X1284782Y1093622D01*
X1281734Y1088694D01*
X1279804Y1083259D01*
X1279093Y1076909D01*
X1279093Y738073D01*
X1279804Y731774D01*
X1281734Y726287D01*
X1284782Y721410D01*
X1288897Y717296D01*
X1293774Y714197D01*
X1299260Y712317D01*
G37*
G36*
X1374038Y1302054D02*
G01*
X1383588Y1303324D01*
X1392783Y1306118D01*
X1401419Y1310487D01*
X1409192Y1316228D01*
X1415846Y1323187D01*
X1421231Y1331163D01*
X1425244Y1339951D01*
X1427632Y1349298D01*
X1428496Y1358900D01*
X1427632Y1368501D01*
X1425244Y1377848D01*
X1423212Y1382217D01*
X1422349Y1386179D01*
X1423060Y1390142D01*
X1425244Y1393494D01*
X1428546Y1395780D01*
X1432509Y1396593D01*
X1444447Y1396593D01*
X1450746Y1397304D01*
X1456232Y1399184D01*
X1461109Y1402283D01*
X1465224Y1406398D01*
X1468272Y1411274D01*
X1470202Y1416761D01*
X1470914Y1423060D01*
X1470914Y1761896D01*
X1470202Y1768246D01*
X1468272Y1773682D01*
X1465224Y1778609D01*
X1461109Y1782673D01*
X1456232Y1785772D01*
X1450746Y1787702D01*
X1444447Y1788414D01*
X1305560Y1788414D01*
X1299260Y1787702D01*
X1293774Y1785772D01*
X1288897Y1782673D01*
X1284782Y1778609D01*
X1281734Y1773682D01*
X1279804Y1768246D01*
X1279093Y1761896D01*
X1279093Y1423060D01*
X1279804Y1416761D01*
X1281734Y1411274D01*
X1284782Y1406398D01*
X1288897Y1402283D01*
X1293774Y1399184D01*
X1299260Y1397304D01*
X1305560Y1396593D01*
X1310436Y1396593D01*
X1314246Y1395831D01*
X1317498Y1393748D01*
X1319682Y1390599D01*
X1320596Y1386840D01*
X1320038Y1383030D01*
X1316583Y1373225D01*
X1314958Y1363726D01*
X1314958Y1354074D01*
X1316583Y1344574D01*
X1319784Y1335481D01*
X1324457Y1327048D01*
X1330553Y1319530D01*
X1337767Y1313180D01*
X1345996Y1308100D01*
X1354937Y1304544D01*
X1364386Y1302512D01*
G37*
G36*
X404520Y1924151D02*
G01*
X422605Y1925574D01*
X440385Y1928825D01*
X457809Y1933854D01*
X474573Y1940712D01*
X490524Y1949196D01*
X505561Y1959305D01*
X519480Y1970887D01*
X532130Y1983892D01*
X543356Y1998065D01*
X553059Y2013356D01*
X561187Y2029561D01*
X567537Y2046528D01*
X572160Y2064004D01*
X574954Y2081885D01*
X575868Y2099970D01*
X574954Y2118106D01*
X572160Y2135987D01*
X567537Y2153462D01*
X561187Y2170430D01*
X553059Y2186635D01*
X543356Y2201926D01*
X532130Y2216099D01*
X519480Y2229104D01*
X505561Y2240686D01*
X490524Y2250795D01*
X474573Y2259279D01*
X457809Y2266137D01*
X440385Y2271166D01*
X422605Y2274417D01*
X404520Y2275840D01*
X386435Y2275382D01*
X368452Y2273046D01*
X350824Y2268880D01*
X333756Y2262936D01*
X317347Y2255266D01*
X301802Y2245918D01*
X287324Y2235047D01*
X274015Y2222754D01*
X262077Y2209139D01*
X251561Y2194407D01*
X242671Y2178659D01*
X235407Y2162048D01*
X229920Y2144776D01*
X226212Y2127046D01*
X224332Y2109063D01*
X224332Y2090928D01*
X226212Y2072944D01*
X229920Y2055215D01*
X235407Y2037943D01*
X242671Y2021332D01*
X251561Y2005584D01*
X262077Y1990852D01*
X274015Y1977237D01*
X287324Y1964943D01*
X301802Y1954072D01*
X317347Y1944725D01*
X333756Y1937054D01*
X350824Y1931111D01*
X368452Y1926945D01*
X386435Y1924608D01*
G37*
G36*
X3104540Y1924151D02*
G01*
X3122574Y1925574D01*
X3140405Y1928825D01*
X3157778Y1933854D01*
X3174542Y1940712D01*
X3190544Y1949196D01*
X3205581Y1959305D01*
X3219450Y1970887D01*
X3232099Y1983892D01*
X3243376Y1998065D01*
X3253079Y2013356D01*
X3261156Y2029561D01*
X3267557Y2046528D01*
X3272180Y2064004D01*
X3274974Y2081885D01*
X3275888Y2099970D01*
X3274974Y2118106D01*
X3272180Y2135987D01*
X3267557Y2153462D01*
X3261156Y2170430D01*
X3253079Y2186635D01*
X3243376Y2201926D01*
X3232099Y2216099D01*
X3219450Y2229104D01*
X3205581Y2240686D01*
X3190544Y2250795D01*
X3174542Y2259279D01*
X3157778Y2266137D01*
X3140405Y2271166D01*
X3122574Y2274417D01*
X3104540Y2275840D01*
X3086404Y2275382D01*
X3068472Y2273046D01*
X3050844Y2268880D01*
X3033725Y2262936D01*
X3017316Y2255266D01*
X3001822Y2245918D01*
X2987294Y2235047D01*
X2974035Y2222754D01*
X2962046Y2209139D01*
X2951581Y2194407D01*
X2942640Y2178659D01*
X2935427Y2162048D01*
X2929890Y2144776D01*
X2926181Y2127046D01*
X2924352Y2109063D01*
X2924352Y2090928D01*
X2926181Y2072944D01*
X2929890Y2055215D01*
X2935427Y2037943D01*
X2942640Y2021332D01*
X2951581Y2005584D01*
X2962046Y1990852D01*
X2974035Y1977237D01*
X2987294Y1964943D01*
X3001822Y1954072D01*
X3017316Y1944725D01*
X3033725Y1937054D01*
X3050844Y1931111D01*
X3068472Y1926945D01*
X3086404Y1924608D01*
G37*

%LPD*%
G36*
X2666695Y995070D02*
G01*
X2648762Y977137D01*
X2654198Y883564D01*
X2760268Y989634D01*
G37*
G36*
X1362303Y1401978D02*
G01*
X1350060Y1381201D01*
X1396441Y1377492D01*
X1387703Y1399946D01*
G37*
G36*
X1887728Y1402232D02*
G01*
X1862328Y1399489D01*
X1854250Y1376730D01*
X1900478Y1381810D01*
G37*
G36*
X1602282Y1122578D02*
G01*
X1612798Y1100836D01*
X1638198Y1100785D01*
X1648815Y1122426D01*
G37*
G36*
X2141423Y1166266D02*
G01*
X2141423Y1119733D01*
X2163114Y1130300D01*
X2163114Y1155700D01*
G37*
G36*
X2146046Y1124864D02*
G01*
X2099767Y1120343D01*
X2112314Y1099769D01*
X2137714Y1102258D01*
G37*
G36*
X2741269Y1281938D02*
G01*
X2722219Y1243838D01*
X2785719Y1243838D01*
X2766669Y1281938D01*
G37*
G36*
X2692146Y1568196D02*
G01*
X2667863Y1530096D01*
X2703779Y1530096D01*
X2755646Y1568196D01*
G37*
G36*
X2722219Y1368196D02*
G01*
X2741269Y1330096D01*
X2766669Y1330096D01*
X2785719Y1368196D01*
G37*
G36*
X1362303Y1115618D02*
G01*
X1343253Y1077518D01*
X1406753Y1077518D01*
X1387703Y1115618D01*
G37*
G36*
X1612849Y1115618D02*
G01*
X1593697Y1077518D01*
X1657197Y1077518D01*
X1638249Y1115618D01*
G37*
G36*
X1862277Y1115618D02*
G01*
X1843227Y1077518D01*
X1906727Y1077518D01*
X1887677Y1115618D01*
G37*
G36*
X2112314Y1115618D02*
G01*
X2093264Y1077518D01*
X2156764Y1077518D01*
X2137714Y1115618D01*
G37*
G36*
X2093264Y1422501D02*
G01*
X2112314Y1384401D01*
X2137714Y1384401D01*
X2156764Y1422501D01*
G37*
G36*
X1843278Y1422501D02*
G01*
X1862328Y1384401D01*
X1887728Y1384401D01*
X1906778Y1422501D01*
G37*
G36*
X1593240Y1422501D02*
G01*
X1612290Y1384401D01*
X1637690Y1384401D01*
X1656740Y1422501D01*
G37*
G36*
X1343253Y1422501D02*
G01*
X1362303Y1384401D01*
X1387703Y1384401D01*
X1406753Y1422501D01*
G37*
D10*
X2753995Y889843D02*
G01*
X2500838Y1143000D01*
X2120900Y1143000D01*
X2124963Y907542D02*
G01*
X2124963Y1138936D01*
X2120900Y1143000D01*
X1625092Y907542D02*
G01*
X1625600Y1143000D01*
X1875028Y1592579D02*
G01*
X1875028Y1363471D01*
X1879600Y1358900D01*
X1374902Y1592579D02*
G01*
X1374902Y1362202D01*
X1371600Y1358900D01*
X2124963Y1592579D02*
G01*
X2124963Y1382013D01*
X2249677Y1257300D01*
X1875028Y907542D02*
G01*
X1875028Y1132839D01*
X1999488Y1257300D01*
X1625092Y1592579D02*
G01*
X1625092Y1382776D01*
X1750568Y1257300D01*
X2753868Y1424939D02*
G01*
X2753868Y1143762D01*
X1374902Y907542D02*
G01*
X1374902Y1133602D01*
X1498600Y1257300D01*
X2413000Y1257300D01*
X2753868Y1598421D01*
X2753868Y1624837D01*
D11*
G01*
X2753994Y1624848D03*
D12*
G01*
X2753995Y1424843D03*
D13*
G01*
X1374995Y907503D03*
G01*
X1624982Y907503D03*
G01*
X1874994Y907503D03*
G01*
X2125007Y907503D03*
D14*
G01*
X1080000Y592493D03*
G01*
X2419977Y592493D03*
D13*
G01*
X2124997Y1592491D03*
G01*
X1875010Y1592491D03*
G01*
X1624998Y1592491D03*
G01*
X1374985Y1592491D03*
D14*
G01*
X2419992Y1907501D03*
G01*
X1080015Y1907501D03*
D15*
G01*
X2754122Y1143762D03*
D16*
G01*
X2754122Y889762D03*
D18*
G01*
X1371600Y1358900D03*
G01*
X1879600Y1358900D03*
G01*
X1625600Y1143000D03*
G01*
X2120900Y1143000D03*
M02*
